<?xml version="1.0" encoding="UTF-8" standalone="no"?>
<svg xmlns="http://www.w3.org/2000/svg" xmlns:xlink="http://www.w3.org/1999/xlink" width="100" height="100" viewBox="0 0 100 100">
  <rect width="100" height="100" rx="15" fill="#f5f5f0" />
  <g transform="translate(20, 10)">
    <!-- Monk face -->
    <circle cx="30" cy="30" r="22" fill="#f8d0b0" stroke="#555" stroke-width="1" />
    <path d="M20,25 Q30,35 40,25" fill="none" stroke="#555" stroke-width="1" />
    <circle cx="23" cy="22" r="2" fill="#555" />
    <circle cx="37" cy="22" r="2" fill="#555" />
    <!-- Closed eyes -->
    <path d="M21,22 Q23,20 25,22" fill="none" stroke="#555" stroke-width="1" />
    <path d="M35,22 Q37,20 39,22" fill="none" stroke="#555" stroke-width="1" />
    <!-- Robe -->
    <path d="M8,60 L30,40 L52,60 L52,80 L8,80 Z" fill="#b76e2e" />
    <!-- Speech bubbles -->
    <rect x="5" y="20" width="15" height="15" rx="5" fill="#555" />
    <text x="12" y="30" fill="white" font-size="10" text-anchor="middle">文</text>
    <rect x="40" y="20" width="15" height="15" rx="5" fill="#fff" stroke="#555" />
    <text x="47" y="30" fill="#555" font-size="10" text-anchor="middle">A</text>
  </g>
  <text x="50" y="90" fill="#555" font-size="12" text-anchor="middle" font-weight="bold">Kumarajiva</text>
</svg> 